<mxfile host="app.diagrams.net" modified="2023-12-07T02:32:04.681Z" agent="Mozilla/5.0 (Windows NT 10.0; Win64; x64) AppleWebKit/537.36 (KHTML, like Gecko) Chrome/119.0.0.0 Safari/537.36" etag="ESjP4RRAWuYYjxppBEXF" version="22.1.7" type="github">
  <diagram name="第 1 页" id="_6DKPW7opV8cqLK-NWJB">
    <mxGraphModel dx="3400" dy="1526" grid="0" gridSize="10" guides="1" tooltips="1" connect="1" arrows="1" fold="1" page="0" pageScale="1" pageWidth="827" pageHeight="1169" math="0" shadow="0">
      <root>
        <mxCell id="0" />
        <mxCell id="1" parent="0" />
        <mxCell id="v124R_e-38u9y8lI4zY_-1" value="" style="rounded=0;whiteSpace=wrap;html=1;" vertex="1" parent="1">
          <mxGeometry x="980" y="160" width="120" height="70" as="geometry" />
        </mxCell>
        <mxCell id="v124R_e-38u9y8lI4zY_-5" style="rounded=0;orthogonalLoop=1;jettySize=auto;html=1;exitX=0.5;exitY=1;exitDx=0;exitDy=0;" edge="1" parent="1">
          <mxGeometry relative="1" as="geometry">
            <mxPoint x="311.14292689732156" y="1079.5714983258931" as="targetPoint" />
            <mxPoint x="568" y="870" as="sourcePoint" />
          </mxGeometry>
        </mxCell>
        <mxCell id="v124R_e-38u9y8lI4zY_-7" style="rounded=0;orthogonalLoop=1;jettySize=auto;html=1;exitX=0.75;exitY=1;exitDx=0;exitDy=0;" edge="1" parent="1" source="v124R_e-38u9y8lI4zY_-4">
          <mxGeometry relative="1" as="geometry">
            <mxPoint x="799" y="1093" as="targetPoint" />
          </mxGeometry>
        </mxCell>
        <mxCell id="v124R_e-38u9y8lI4zY_-4" value="" style="rounded=0;whiteSpace=wrap;html=1;" vertex="1" parent="1">
          <mxGeometry x="518" y="817" width="120" height="60" as="geometry" />
        </mxCell>
        <mxCell id="v124R_e-38u9y8lI4zY_-8" value="" style="rounded=0;whiteSpace=wrap;html=1;" vertex="1" parent="1">
          <mxGeometry x="518" y="820" width="120" height="60" as="geometry" />
        </mxCell>
        <mxCell id="v124R_e-38u9y8lI4zY_-14" style="rounded=0;orthogonalLoop=1;jettySize=auto;html=1;exitX=0.25;exitY=1;exitDx=0;exitDy=0;" edge="1" parent="1" source="v124R_e-38u9y8lI4zY_-9">
          <mxGeometry relative="1" as="geometry">
            <mxPoint x="33.14287458147328" y="1303.71435546875" as="targetPoint" />
          </mxGeometry>
        </mxCell>
        <mxCell id="v124R_e-38u9y8lI4zY_-9" value="" style="rounded=0;whiteSpace=wrap;html=1;" vertex="1" parent="1">
          <mxGeometry x="218" y="1087" width="120" height="60" as="geometry" />
        </mxCell>
        <mxCell id="v124R_e-38u9y8lI4zY_-15" style="rounded=0;orthogonalLoop=1;jettySize=auto;html=1;exitX=0;exitY=1;exitDx=0;exitDy=0;entryX=0.5;entryY=0;entryDx=0;entryDy=0;" edge="1" parent="1" source="v124R_e-38u9y8lI4zY_-10" target="v124R_e-38u9y8lI4zY_-12">
          <mxGeometry relative="1" as="geometry" />
        </mxCell>
        <mxCell id="v124R_e-38u9y8lI4zY_-10" value="" style="rounded=0;whiteSpace=wrap;html=1;" vertex="1" parent="1">
          <mxGeometry x="758" y="1093" width="120" height="60" as="geometry" />
        </mxCell>
        <mxCell id="v124R_e-38u9y8lI4zY_-11" value="" style="rounded=0;whiteSpace=wrap;html=1;" vertex="1" parent="1">
          <mxGeometry x="-58" y="1306" width="120" height="60" as="geometry" />
        </mxCell>
        <mxCell id="v124R_e-38u9y8lI4zY_-12" value="" style="rounded=0;whiteSpace=wrap;html=1;" vertex="1" parent="1">
          <mxGeometry x="511" y="1311" width="120" height="60" as="geometry" />
        </mxCell>
        <mxCell id="v124R_e-38u9y8lI4zY_-16" value="Text" style="text;strokeColor=none;align=center;fillColor=none;html=1;verticalAlign=middle;whiteSpace=wrap;rounded=0;" vertex="1" parent="1">
          <mxGeometry x="724" y="1116" width="60" height="30" as="geometry" />
        </mxCell>
        <mxCell id="v124R_e-38u9y8lI4zY_-20" value="" style="whiteSpace=wrap;html=1;" vertex="1" parent="1">
          <mxGeometry x="687" y="1094" width="120" height="60" as="geometry" />
        </mxCell>
        <mxCell id="v124R_e-38u9y8lI4zY_-23" value="NO: KM916-42111" style="text;html=1;align=center;verticalAlign=middle;resizable=0;points=[];autosize=1;strokeColor=none;fillColor=none;strokeWidth=128;fontSize=41;" vertex="1" parent="1">
          <mxGeometry x="114" y="819" width="354" height="61" as="geometry" />
        </mxCell>
        <mxCell id="v124R_e-38u9y8lI4zY_-24" value="&lt;span style=&quot;font-size: 42px;&quot;&gt;level :1&lt;/span&gt;" style="text;html=1;align=center;verticalAlign=middle;resizable=0;points=[];autosize=1;strokeColor=none;fillColor=none;" vertex="1" parent="1">
          <mxGeometry x="179" y="755" width="151" height="62" as="geometry" />
        </mxCell>
        <mxCell id="v124R_e-38u9y8lI4zY_-26" value="&lt;font style=&quot;font-size: 42px;&quot;&gt;level :2&lt;/font&gt;" style="text;html=1;align=center;verticalAlign=middle;resizable=0;points=[];autosize=1;strokeColor=none;fillColor=none;" vertex="1" parent="1">
          <mxGeometry x="-30" y="1007" width="151" height="62" as="geometry" />
        </mxCell>
      </root>
    </mxGraphModel>
  </diagram>
</mxfile>
